:SAMPLES-PER-SECOND 30
:FULLY-SPECIFIED
:DEGREES
296
root  33.9251 39.8826 10.7909 -179.943 -16.9973 -179.772
RightUpLeg  1.6937 -12.1839 -9.37162
RightLeg  18.0901 -9.3985 -3.29046
RightFoot  3.9556 -3.28957 24.385
RightToes  -5.8209e-011 0 -3.6325e-017
Spine  2.90296 2.044 -0.946987
Spine1  4.62238 1.45662 3.84735
HEad  0.177026 2.85818 -3.68755
LeftShoulder1  0.124388 9.97412 11.7909
LeftArm  -61.4271 -10.5713 -16.5578
LeftForeArm  123.187 -56.4258 -161.485
LeftHand  -1.21229 -0.587043 23.4778
RightShoulder  0.0640915 -6.83435 -11.7155
RightArm  -60.7557 9.70978 16.1462
RightForeArm  142.232 58.1842 161.548
RightHand  -4.55937 9.59891 -34.5773
LeftUpLeg  -7.65435 10.7273 -2.43931
LeftLeg  25.5956 11.1274 6.08389
LeftFoot  -5.06432 0.112489 -1.35798
LeftToes  6.82088e-011 -2.45093e-011 5.71991e-013
297
root  33.5691 39.7695 10.7856 -179.845 -19.5024 179.668
RightUpLeg  0.263774 -13.3025 -10.5769
RightLeg  22.3371 -9.53568 -4.54142
RightFoot  5.07311 -3.69944 25.513
RightToes  -5.8209e-011 0 -3.6325e-017
Spine  2.15538 1.64976 -1.08094
Spine1  4.65975 1.14883 3.16346
HEad  1.64208 2.47915 -4.59474
LeftShoulder1  0.220845 10.3588 13.3836
LeftArm  -58.3267 -11.7418 -15.454
LeftForeArm  109.238 -68.0819 -146.866
LeftHand  -1.28865 -0.927328 23.5956
RightShoulder  0.128136 -6.86874 -13.8575
RightArm  -58.3236 12.0632 14.5971
RightForeArm  132.579 67.2492 151.653
RightHand  -4.65594 9.82113 -34.7763
LeftUpLeg  -6.00011 10.6758 -3.78975
LeftLeg  26.971 10.5272 6.10223
LeftFoot  -3.9882 0.219473 -3.15998
LeftToes  6.82088e-011 -2.45093e-011 5.71991e-013
298
root  33.2349 39.2898 10.8272 179.473 -21.9851 178.872
RightUpLeg  -1.63951 -12.0294 -12.0391
RightLeg  29.7423 -10.136 -6.42361
RightFoot  4.32852 -3.90691 28.1098
RightToes  -5.8209e-011 0 -3.6325e-017
Spine  2.82989 1.58378 -1.54694
Spine1  3.96965 1.09013 2.25341
HEad  3.33813 1.71161 -4.87198
LeftShoulder1  0.259475 8.14621 16.1635
LeftArm  -53.3012 -13.4833 -12.9553
LeftForeArm  51.3844 -78.2421 -84.8382
LeftHand  -1.62132 -2.03291 25.2163
RightShoulder  0.200654 -6.57333 -16.96
RightArm  -56.5011 13.6468 13.3025
RightForeArm  107.845 76.6764 125.884
RightHand  -4.88299 10.1287 -35.6826
LeftUpLeg  -3.49662 7.71362 -5.54674
LeftLeg  27.8701 10.0524 6.06075
LeftFoot  -7.90284 0.171145 -3.98493
LeftToes  6.82088e-011 -2.45093e-011 5.71991e-013
299
root  32.9663 38.5239 10.9433 178.248 -24.4943 177.658
RightUpLeg  -3.86254 -10.7055 -14.2309
RightLeg  39.1168 -9.1001 -8.10884
RightFoot  4.02121 -4.34423 31.5866
RightToes  -5.8209e-011 0 -3.6325e-017
Spine  5.18323 1.79744 -2.97689
Spine1  3.45043 1.05495 1.58081
HEad  1.83605 0.188675 -4.09807
LeftShoulder1  0.156475 5.44324 18.5904
LeftArm  -50.3688 -14.2378 -10.7897
LeftForeArm  3.98819 -71.1993 -34.7363
LeftHand  -1.87877 -2.56787 27.2349
RightShoulder  0.222081 -6.04064 -19.3038
RightArm  -57.7556 12.7798 12.4827
RightForeArm  82.2452 78.9287 101.825
RightHand  -5.00467 10.1909 -36.3745
LeftUpLeg  -1.14981 3.95774 -7.87715
LeftLeg  29.0762 10.4428 6.58025
LeftFoot  -14.5179 0.0193843 -2.73175
LeftToes  6.82088e-011 -2.45093e-011 5.71991e-013
300
root  32.8004 37.7375 11.1129 177.313 -27.7387 175.952
RightUpLeg  -6.42404 -9.65834 -16.8158
RightLeg  48.5581 -7.68405 -9.55333
RightFoot  6.50146 -4.98323 31.4071
RightToes  -5.8209e-011 0 -3.6325e-017
Spine  8.2879 1.88542 -6.11348
Spine1  3.97932 0.381473 2.46943
HEad  -3.67289 -1.40621 -2.58161
LeftShoulder1  0.126407 5.05535 19.0103
LeftArm  -53.4071 -13.7711 -10.8748
LeftForeArm  11.0202 -72.6223 -41.5579
LeftHand  -1.85274 -2.52969 26.9762
RightShoulder  0.245794 -6.19282 -19.8059
RightArm  -62.8481 10.2362 12.8223
RightForeArm  101.033 76.4491 123.798
RightHand  -4.83939 9.93197 -35.8059
LeftUpLeg  0.375297 1.04308 -10.4482
LeftLeg  30.7321 10.6243 7.10886
LeftFoot  -20.1296 0.100688 -0.252445
LeftToes  6.82088e-011 -2.45093e-011 5.71991e-013
